HIERARCHY
ROOT Hips
{
	OFFSET 0.000000 83.214638 0.000000
	CHANNELS 6 Xposition Yposition Zposition Xrotation Yrotation Zrotation
	JOINT Pelvis
	{
		OFFSET 0.000000 0.000000 0.000000
		CHANNELS 3 Xrotation Yrotation Zrotation
		JOINT LeftUpLeg
		{
			OFFSET 8.479700 -4.795502 -0.379100
			CHANNELS 3 Xrotation Yrotation Zrotation
			JOINT LeftLeg
			{
				OFFSET 0.024144 -32.555107 0.112900
				CHANNELS 3 Xrotation Yrotation Zrotation
				JOINT LeftFoot
				{
					OFFSET -0.024144 -32.638630 -3.012600
					CHANNELS 3 Xrotation Yrotation Zrotation
					JOINT LeftToeBase
					{
						OFFSET 0.970200 -13.225400 11.864200
						CHANNELS 3 Xrotation Yrotation Zrotation
						End Site
						{
							OFFSET 0.000000 12.319262 0.000000
						}
					}
					JOINT LFootTongue
					{
						OFFSET 1.142400 -1.059800 6.665200
						CHANNELS 3 Xrotation Yrotation Zrotation
						End Site
						{
							OFFSET 0.000000 12.319262 0.000000
						}
					}
				}
				JOINT LeftPantLeg
				{
					OFFSET 0.918482 -16.533964 -2.284700
					CHANNELS 3 Xrotation Yrotation Zrotation
					End Site
					{
						OFFSET 0.350399 24.744368 0.000000
					}
				}
			}
		}
		JOINT RightUpLeg
		{
			OFFSET -8.479700 -4.795502 -0.379100
			CHANNELS 3 Xrotation Yrotation Zrotation
			JOINT RightLeg
			{
				OFFSET -0.023144 -32.555092 0.112900
				CHANNELS 3 Xrotation Yrotation Zrotation
				JOINT RightFoot
				{
					OFFSET 0.023144 -32.638641 -3.012700
					CHANNELS 3 Xrotation Yrotation Zrotation
					JOINT RightToeBase
					{
						OFFSET -0.970200 -13.225400 11.864200
						CHANNELS 3 Xrotation Yrotation Zrotation
						End Site
						{
							OFFSET 0.000000 12.319244 0.000000
						}
					}
					JOINT RFootTongue
					{
						OFFSET -1.142200 -1.059800 6.665200
						CHANNELS 3 Xrotation Yrotation Zrotation
						End Site
						{
							OFFSET 0.000000 12.319243 0.000000
						}
					}
				}
				JOINT RightPantLeg
				{
					OFFSET -0.919482 -16.533978 -2.284800
					CHANNELS 3 Xrotation Yrotation Zrotation
					End Site
					{
						OFFSET -0.350400 24.744419 0.000000
					}
				}
			}
		}
	}
	JOINT Spine
	{
		OFFSET 0.000000 7.722000 1.166200
		CHANNELS 3 Xrotation Yrotation Zrotation
		JOINT Spine1
		{
			OFFSET 0.000000 12.024101 0.248800
			CHANNELS 3 Xrotation Yrotation Zrotation
			JOINT Spine2
			{
				OFFSET 0.000000 11.502998 -0.491200
				CHANNELS 3 Xrotation Yrotation Zrotation
				JOINT Neck
				{
					OFFSET 0.000000 18.430702 -3.123100
					CHANNELS 3 Xrotation Yrotation Zrotation
					JOINT Head
					{
						OFFSET 0.000000 9.051102 1.034000
						CHANNELS 3 Xrotation Yrotation Zrotation
						JOINT HairB
						{
							OFFSET 0.208400 24.786102 24.822300
							CHANNELS 3 Xrotation Yrotation Zrotation
							End Site
							{
								OFFSET 0.000000 32.263779 0.000000
							}
						}
						JOINT HairA
						{
							OFFSET -7.081100 24.428299 23.196600
							CHANNELS 3 Xrotation Yrotation Zrotation
							End Site
							{
								OFFSET 0.000000 32.263779 0.000000
							}
						}
						JOINT Hat
						{
							OFFSET 16.728800 15.048294 -15.439601
							CHANNELS 3 Xrotation Yrotation Zrotation
							End Site
							{
								OFFSET 0.000000 32.263779 0.000000
							}
						}
					}
				}
				JOINT LeftShoulder
				{
					OFFSET 6.197800 13.665199 -4.064700
					CHANNELS 3 Xrotation Yrotation Zrotation
					JOINT LeftArm
					{
						OFFSET 7.778100 -0.187103 -1.709300
						CHANNELS 3 Xrotation Yrotation Zrotation
						JOINT LeftForeArm
						{
							OFFSET 22.049376 0.000000 0.000000
							CHANNELS 3 Xrotation Yrotation Zrotation
							JOINT LeftHand
							{
								OFFSET 23.009392 0.000000 0.000000
								CHANNELS 3 Xrotation Yrotation Zrotation
								JOINT LeftHandThumb1
								{
									OFFSET 3.507191 -2.063065 3.133727
									CHANNELS 3 Xrotation Yrotation Zrotation
									JOINT LeftHandThumb2
									{
										OFFSET 3.101337 -1.790558 1.790558
										CHANNELS 3 Xrotation Yrotation Zrotation
										JOINT LeftHandThumb3
										{
											OFFSET 3.058640 -1.765907 1.765906
											CHANNELS 3 Xrotation Yrotation Zrotation
											End Site
											{
												OFFSET -0.415260 3.926476 -0.049563
											}
										}
									}
								}
								JOINT LeftHandIndex1
								{
									OFFSET 11.334419 -0.901459 3.706815
									CHANNELS 3 Xrotation Yrotation Zrotation
									JOINT LeftHandIndex2
									{
										OFFSET 3.283112 0.000000 0.000000
										CHANNELS 3 Xrotation Yrotation Zrotation
										JOINT LeftHandIndex3
										{
											OFFSET 3.323853 0.000000 0.000000
											CHANNELS 3 Xrotation Yrotation Zrotation
											End Site
											{
												OFFSET -1.135597 3.097809 0.402452
											}
										}
									}
								}
								JOINT LeftHandMiddle1
								{
									OFFSET 11.335861 0.000000 0.000000
									CHANNELS 3 Xrotation Yrotation Zrotation
									JOINT LeftHandMiddle2
									{
										OFFSET 3.410492 0.000000 0.000000
										CHANNELS 3 Xrotation Yrotation Zrotation
										JOINT LeftHandMiddle3
										{
											OFFSET 3.312172 0.000000 0.000000
											CHANNELS 3 Xrotation Yrotation Zrotation
											End Site
											{
												OFFSET -1.150200 3.080154 0.400270
											}
										}
									}
								}
								JOINT LeftHandRing1
								{
									OFFSET 11.514786 -0.013176 -3.003090
									CHANNELS 3 Xrotation Yrotation Zrotation
									JOINT LeftHandRing2
									{
										OFFSET 3.053307 0.000000 0.000000
										CHANNELS 3 Xrotation Yrotation Zrotation
										JOINT LeftHandRing3
										{
											OFFSET 3.295807 0.000000 0.000000
											CHANNELS 3 Xrotation Yrotation Zrotation
											End Site
											{
												OFFSET -1.281006 3.013344 0.375733
											}
										}
									}
								}
								JOINT LeftHandPinky1
								{
									OFFSET 10.518692 -0.960396 -5.730441
									CHANNELS 3 Xrotation Yrotation Zrotation
									JOINT LeftHandPinky2
									{
										OFFSET 2.861649 0.000000 0.000000
										CHANNELS 3 Xrotation Yrotation Zrotation
										JOINT LeftHandPinky3
										{
											OFFSET 2.863380 0.000000 0.000000
											CHANNELS 3 Xrotation Yrotation Zrotation
											End Site
											{
												OFFSET -0.843597 2.711159 0.369971
											}
										}
									}
								}
							}
							JOINT LSleeve
							{
								OFFSET 6.676277 -0.344902 -1.011730
								CHANNELS 3 Xrotation Yrotation Zrotation
								End Site
								{
									OFFSET 0.000000 14.885353 0.000000
								}
							}
						}
					}
				}
				JOINT RightShoulder
				{
					OFFSET -6.197800 13.665199 -4.064700
					CHANNELS 3 Xrotation Yrotation Zrotation
					JOINT RightArm
					{
						OFFSET -7.778100 -0.187103 -1.709300
						CHANNELS 3 Xrotation Yrotation Zrotation
						JOINT RightForeArm
						{
							OFFSET -22.049376 0.000000 0.000000
							CHANNELS 3 Xrotation Yrotation Zrotation
							JOINT RightHand
							{
								OFFSET -23.009392 0.000000 0.000000
								CHANNELS 3 Xrotation Yrotation Zrotation
								JOINT RightHandThumb1
								{
									OFFSET -3.507191 -2.063065 3.133727
									CHANNELS 3 Xrotation Yrotation Zrotation
									JOINT RightHandThumb2
									{
										OFFSET -3.101337 -1.790558 1.790558
										CHANNELS 3 Xrotation Yrotation Zrotation
										JOINT RightHandThumb3
										{
											OFFSET -3.058640 -1.765907 1.765906
											CHANNELS 3 Xrotation Yrotation Zrotation
											End Site
											{
												OFFSET 0.415260 3.926476 -0.049563
											}
										}
									}
								}
								JOINT RightHandIndex1
								{
									OFFSET -11.334419 -0.901459 3.706815
									CHANNELS 3 Xrotation Yrotation Zrotation
									JOINT RightHandIndex2
									{
										OFFSET -3.283112 0.000000 0.000000
										CHANNELS 3 Xrotation Yrotation Zrotation
										JOINT RightHandIndex3
										{
											OFFSET -3.323853 0.000000 0.000000
											CHANNELS 3 Xrotation Yrotation Zrotation
											End Site
											{
												OFFSET 1.135597 3.097809 0.402452
											}
										}
									}
								}
								JOINT RightHandMiddle1
								{
									OFFSET -11.335861 0.000000 0.000000
									CHANNELS 3 Xrotation Yrotation Zrotation
									JOINT RightHandMiddle2
									{
										OFFSET -3.410492 0.000000 0.000000
										CHANNELS 3 Xrotation Yrotation Zrotation
										JOINT RightHandMiddle3
										{
											OFFSET -3.312172 0.000000 0.000000
											CHANNELS 3 Xrotation Yrotation Zrotation
											End Site
											{
												OFFSET 1.150200 3.080154 0.400270
											}
										}
									}
								}
								JOINT RightHandRing1
								{
									OFFSET -11.514786 -0.013176 -3.003090
									CHANNELS 3 Xrotation Yrotation Zrotation
									JOINT RightHandRing2
									{
										OFFSET -3.053307 0.000000 0.000000
										CHANNELS 3 Xrotation Yrotation Zrotation
										JOINT RightHandRing3
										{
											OFFSET -3.295807 0.000000 0.000000
											CHANNELS 3 Xrotation Yrotation Zrotation
											End Site
											{
												OFFSET 1.281006 3.013344 0.375733
											}
										}
									}
								}
								JOINT RightHandPinky1
								{
									OFFSET -10.518692 -0.960396 -5.730441
									CHANNELS 3 Xrotation Yrotation Zrotation
									JOINT RightHandPinky2
									{
										OFFSET -2.861649 0.000000 0.000000
										CHANNELS 3 Xrotation Yrotation Zrotation
										JOINT RightHandPinky3
										{
											OFFSET -2.863380 0.000000 0.000000
											CHANNELS 3 Xrotation Yrotation Zrotation
											End Site
											{
												OFFSET 0.843597 2.711159 0.369971
											}
										}
									}
								}
							}
							JOINT RSleeve
							{
								OFFSET -6.676277 -0.344902 -1.011730
								CHANNELS 3 Xrotation Yrotation Zrotation
								End Site
								{
									OFFSET 0.000000 14.885353 0.000000
								}
							}
						}
					}
				}
				JOINT Backpack
				{
					OFFSET 0.000000 -2.471497 36.677502
					CHANNELS 3 Xrotation Yrotation Zrotation
					End Site
					{
						OFFSET 0.000000 20.427315 0.000000
					}
				}
				JOINT Hood
				{
					OFFSET 0.000000 18.754097 -10.431000
					CHANNELS 3 Xrotation Yrotation Zrotation
					JOINT Hood1
					{
						OFFSET 0.000000 -5.011002 -7.685901
						CHANNELS 3 Xrotation Yrotation Zrotation
						End Site
						{
							OFFSET 0.000000 9.175140 0.000000
						}
					}
				}
				JOINT LHoodieString
				{
					OFFSET 5.250500 16.397697 3.089900
					CHANNELS 3 Xrotation Yrotation Zrotation
					JOINT LHoodieString1
					{
						OFFSET 0.257700 -6.364304 3.694600
						CHANNELS 3 Xrotation Yrotation Zrotation
						JOINT LHoodieString2
						{
							OFFSET 0.000000 -9.643799 2.679100
							CHANNELS 3 Xrotation Yrotation Zrotation
							End Site
							{
								OFFSET 0.000000 10.009018 0.000000
							}
						}
					}
				}
				JOINT RHoodieString
				{
					OFFSET -5.250500 16.397697 3.089900
					CHANNELS 3 Xrotation Yrotation Zrotation
					JOINT RHoodieString1
					{
						OFFSET -0.257700 -6.364304 3.694600
						CHANNELS 3 Xrotation Yrotation Zrotation
						JOINT RHoodieString2
						{
							OFFSET 0.000000 -9.643799 2.679100
							CHANNELS 3 Xrotation Yrotation Zrotation
							End Site
							{
								OFFSET 0.000000 10.009018 0.000000
							}
						}
					}
				}
			}
			JOINT LBackpack_Strap
			{
				OFFSET 15.223200 -7.719803 -6.610900
				CHANNELS 3 Xrotation Yrotation Zrotation
				End Site
				{
					OFFSET 0.000000 16.040596 0.000000
				}
			}
			JOINT RBackpack_Strap
			{
				OFFSET -15.223000 -7.719803 -6.610900
				CHANNELS 3 Xrotation Yrotation Zrotation
				End Site
				{
					OFFSET 0.000000 16.040596 0.000000
				}
			}
		}
	}
	JOINT BoyFacialAnim_Joint
	{
		OFFSET 1.000000 -82.208099 -1.550900
		CHANNELS 3 Xrotation Yrotation Zrotation
		End Site
		{
			OFFSET 0.000000 30.012791 0.000000
		}
	}
}
MOTION
Frames: 4
Frame Time: 0.033333
-3.075099 82.258247 -5.551825 9.690748 12.537386 1.888347 -0.000001 -0.000000 -0.000000 -32.198198 10.145229 11.882711 29.995220 -0.159659 -1.114309 -5.569083 -11.479794 -12.394853 -0.000000 -0.000000 -0.000000 -0.000000 -0.000000 0.000000 -0.000000 0.000002 0.000000 -23.718778 4.541108 -2.233644 20.655713 -0.117928 0.769736 -6.766729 -22.587611 -1.537110 -0.000000 0.000000 0.000000 -0.000000 0.000000 0.000000 -0.000000 -0.000001 0.000000 2.047832 2.250193 2.130140 4.027462 4.518443 3.992480 4.027462 4.518447 3.992478 -9.365946 2.123824 -1.200116 24.735011 23.610250 -19.042195 -0.000001 0.000000 -0.000001 -0.000001 0.000000 -0.000001 -0.000001 0.000000 -0.000001 -0.433593 8.663952 -0.023425 -23.178756 -38.652946 -81.044142 1.723856 -91.956223 1.685364 75.801385 5.484717 72.591701 -6.433614 2.002580 9.298302 -0.924454 -0.240225 3.827849 -0.000001 0.000000 -0.000000 0.239059 -0.488826 -12.766005 0.046876 0.802321 -19.969274 -0.000001 -0.000000 -0.000005 -0.220930 0.060041 -18.228701 -0.195884 -0.678793 -14.110606 0.000000 -0.000001 -0.000003 -0.857397 5.740229 -19.235450 -0.212800 -1.939965 -17.158537 0.000001 -0.000000 -0.000004 -1.720503 9.429678 -18.044661 -0.746197 -6.091234 -28.929929 -0.000002 0.000003 0.000004 0.000001 -0.000001 -0.000001 -1.641916 2.080681 10.215924 -8.357605 18.724943 33.165889 -0.069158 52.067154 0.038468 58.347861 1.669433 -57.130113 -3.608928 1.159014 0.627151 5.921602 -7.428804 5.084573 0.000000 -0.000001 -0.000001 -0.201361 -4.127911 -2.272275 0.401938 -1.584313 30.895329 -0.000000 0.000003 0.000001 0.418871 -5.930184 14.470632 -0.557810 1.539378 34.899528 0.000001 0.000003 0.000000 -1.954764 -0.190635 19.653569 -0.996451 3.841528 32.851000 -0.000001 -0.000001 0.000000 -1.206273 -7.415044 13.177749 -2.642406 9.800477 43.922628 -0.000001 -0.000001 -0.000002 -0.000002 0.000000 -0.000004 0.000002 0.000000 0.000001 0.000002 0.000000 0.000001 0.000002 0.000000 0.000001 0.000002 0.000000 0.000001 0.000002 0.000000 0.000001 0.000002 0.000002 -0.000002 0.000002 0.000000 0.000001 0.000002 0.000000 0.000001 0.000002 0.000002 -0.000002 0.000001 0.000000 0.000001 0.000001 0.000000 0.000001 -0.000001 -0.000000 -0.000000 
-2.772317 82.209641 -5.878370 9.483927 12.654250 1.984308 -0.000000 -0.000000 0.000001 -32.699261 10.584287 12.521036 31.523451 -0.169080 -1.168739 -6.325699 -12.774989 -12.617163 -0.000000 -0.000000 0.000000 -0.000000 -0.000000 0.000001 -0.000001 0.000002 -0.000000 -23.953045 4.180635 -2.743760 21.136212 -0.124957 0.785484 -6.669815 -22.132116 -1.159919 0.000000 -0.000000 -0.000000 0.000000 -0.000000 -0.000000 0.000001 -0.000000 0.000000 2.061166 2.263382 2.110640 4.056326 4.538954 3.924190 4.056320 4.538949 3.924190 -8.971140 2.281963 -1.446691 25.353464 24.599193 -19.678251 -0.000000 -0.000003 -0.000000 -0.000000 -0.000003 -0.000000 -0.000000 -0.000003 -0.000000 -0.444025 8.327633 -0.478609 -24.491134 -38.415456 -82.710811 7.445314 -90.448316 7.406808 77.089852 4.880458 73.077212 -5.932242 2.684766 9.620046 -0.926711 -0.240256 3.833373 -0.000000 -0.000001 -0.000001 0.214317 -0.578030 -13.010645 0.057576 0.803376 -19.958380 -0.000001 -0.000000 -0.000005 -0.186935 0.178751 -18.245874 -0.174608 -0.665785 -14.096537 0.000003 -0.000000 0.000000 -0.544466 6.375400 -19.322827 -0.223958 -1.951349 -17.143051 0.000002 -0.000000 -0.000004 -1.248198 10.291093 -18.235558 -0.819936 -6.091451 -28.922723 0.000001 -0.000000 0.000001 -0.000001 -0.000000 -0.000000 -1.764434 2.536712 10.555274 -9.176626 17.559995 33.116572 -0.066525 51.612161 0.035949 58.465620 2.362494 -56.142912 -3.484543 0.917541 0.726404 6.063807 -7.754091 4.979086 -0.000000 0.000001 0.000001 -0.205422 -4.020174 -2.354337 0.422931 -1.606046 31.637610 -0.000001 0.000001 0.000002 0.487166 -6.178245 14.524114 -0.596214 1.612043 36.296158 -0.000000 -0.000000 -0.000000 -1.795742 -0.682823 20.365129 -1.194032 4.099308 35.698213 0.000001 0.000005 -0.000001 -1.240286 -6.585832 15.466079 -3.039567 10.032744 46.302887 0.000001 -0.000001 0.000000 -0.000003 0.000000 -0.000002 -0.000000 -0.000000 -0.000001 -0.000000 -0.000000 -0.000001 -0.000000 -0.000000 -0.000001 -0.000000 -0.000000 -0.000001 -0.000000 -0.000000 -0.000001 -0.000002 0.000000 0.000001 -0.000000 -0.000000 -0.000001 -0.000000 -0.000000 -0.000001 -0.000002 0.000000 0.000001 0.000001 -0.000001 0.000000 0.000001 -0.000001 0.000000 -0.000000 -0.000000 0.000001 
-2.384089 82.193024 -6.167384 9.108213 12.505194 2.028818 0.000001 -0.000001 0.000000 -32.965140 10.590210 13.268377 33.881170 -0.175443 -1.251117 -7.000279 -12.301457 -11.571133 -0.000000 -0.000000 -0.000000 -0.000000 -0.000000 -0.000000 0.000001 0.000000 0.000000 -23.813492 3.830926 -3.183828 21.238157 -0.135837 0.787737 -6.396566 -21.448341 -0.720788 0.000000 0.000000 0.000000 0.000000 0.000000 0.000000 -0.000001 0.000002 -0.000000 2.071438 2.318153 2.076328 4.079444 4.641967 3.811248 4.079453 4.641979 3.811253 -8.515438 2.389919 -1.617360 26.084882 25.480902 -20.230554 -0.000000 -0.000001 -0.000000 -0.000000 -0.000001 -0.000000 -0.000000 -0.000001 -0.000000 -0.457746 8.327068 -0.738488 -26.069977 -38.441640 -84.917263 -2.385124 -88.631752 -2.423591 78.699079 4.217604 73.605595 -5.634118 3.114973 9.738271 -0.913966 -0.231624 3.758115 -0.000000 0.000000 -0.000000 0.162005 -0.615924 -13.388540 0.080839 0.827468 -21.391072 0.000001 -0.000001 -0.000004 -0.190117 0.216624 -18.223433 -0.203836 -0.828565 -16.323636 0.000000 0.000000 0.000004 -0.331695 6.795644 -19.621848 -0.247333 -2.015683 -17.812833 -0.000001 0.000000 -0.000004 -0.877324 11.042929 -18.733216 -0.930485 -6.194807 -29.909651 -0.000000 0.000000 -0.000002 -0.000001 -0.000000 -0.000000 -1.888739 3.068431 10.835820 -9.936902 16.020905 33.283505 -0.064704 51.239543 0.035056 57.801097 3.202570 -54.453362 -3.508573 0.856752 0.569558 6.025533 -7.762402 4.881718 0.000001 0.000003 0.000002 -0.212726 -4.063951 -2.604080 0.416763 -1.599729 31.420141 -0.000000 0.000000 0.000002 0.474936 -6.156592 14.413723 -0.585017 1.591277 35.895410 0.000001 0.000002 0.000000 -1.874284 -0.462832 20.203976 -1.191365 4.095993 35.660974 0.000002 0.000003 0.000004 -1.169723 -6.860271 15.406501 -3.026508 10.025469 46.225487 0.000001 -0.000002 -0.000000 0.000002 0.000000 -0.000003 0.000001 0.000000 -0.000003 0.000001 0.000000 -0.000003 0.000001 0.000000 -0.000003 0.000001 0.000000 -0.000003 0.000001 0.000000 -0.000003 -0.000001 -0.000000 0.000002 0.000001 0.000000 -0.000003 0.000001 0.000000 -0.000003 -0.000001 -0.000000 0.000002 0.000001 -0.000003 0.000000 0.000001 -0.000003 0.000000 0.000001 -0.000001 0.000000 
-1.927083 82.213402 -6.414148 8.608009 12.086670 2.016532 -0.000000 0.000000 -0.000000 -32.804565 9.856119 14.034051 36.577623 -0.172177 -1.343315 -7.474583 -10.649903 -9.910015 -0.000000 0.000000 -0.000000 -0.000000 0.000000 -0.000000 0.000001 0.000000 0.000000 -23.314352 3.659457 -3.500197 20.910607 -0.149156 0.774365 -5.925494 -20.721701 -0.234925 -0.000000 0.000000 0.000000 -0.000000 0.000000 0.000000 -0.000000 0.000000 0.000000 2.064168 2.370707 2.011781 4.069855 4.739672 3.623963 4.069857 4.739674 3.623965 -7.954388 2.497105 -1.784561 26.721732 26.314926 -20.515298 -0.000000 -0.000002 -0.000000 -0.000000 -0.000002 -0.000000 -0.000000 -0.000002 -0.000000 -0.477989 8.497430 -1.020075 -27.996100 -38.761740 -87.226495 -0.862291 -86.333680 -0.900440 80.440436 3.795437 74.047078 -5.518012 3.283285 9.777151 -0.898795 -0.221750 3.669990 -0.000000 0.000001 -0.000000 0.099126 -0.626268 -14.141252 0.098746 0.845567 -22.472898 -0.000003 0.000003 -0.000003 -0.225380 0.181892 -18.476090 -0.220297 -0.906412 -17.418581 0.000000 -0.000003 0.000007 -0.220195 7.015290 -19.665551 -0.234830 -1.988949 -17.430528 -0.000001 -0.000001 -0.000001 -0.590839 11.714023 -18.618677 -0.942002 -6.206925 -29.954372 -0.000000 0.000001 -0.000000 0.000002 0.000000 0.000001 -1.996070 3.605633 11.012619 -10.740877 14.651615 33.866554 -0.065046 50.380281 0.036994 56.043075 4.145548 -52.403049 -3.540012 0.826528 0.456374 5.978739 -7.755665 4.784726 0.000001 0.000001 -0.000004 -0.218615 -4.030353 -2.616057 0.412961 -1.595785 31.286467 0.000000 -0.000001 0.000002 0.460647 -6.090086 14.467118 -0.574442 1.571354 35.512448 0.000001 0.000000 -0.000000 -1.948738 -0.246671 20.011336 -1.124142 4.011132 34.711776 0.000001 0.000001 -0.000001 -1.124942 -7.188459 14.861231 -2.908423 9.958486 45.523224 -0.000000 0.000002 0.000001 -0.000000 0.000000 0.000001 -0.000001 0.000002 -0.000000 -0.000001 0.000002 -0.000000 -0.000001 0.000002 -0.000000 -0.000001 0.000002 -0.000000 -0.000001 0.000002 0.000000 -0.000002 -0.000000 -0.000001 -0.000001 0.000002 -0.000000 -0.000001 0.000002 0.000000 -0.000002 -0.000000 -0.000001 0.000002 0.000001 -0.000000 0.000002 0.000001 -0.000000 -0.000000 0.000000 -0.000000 
